<?xml version="1.0" encoding="UTF-8" standalone="no"?>
<!-- Created with Inkscape (http://www.inkscape.org/) -->

<svg
   xmlns:dc="http://purl.org/dc/elements/1.1/"
   xmlns:cc="http://creativecommons.org/ns#"
   xmlns:rdf="http://www.w3.org/1999/02/22-rdf-syntax-ns#"
   xmlns:svg="http://www.w3.org/2000/svg"
   xmlns="http://www.w3.org/2000/svg"
   xmlns:sodipodi="http://sodipodi.sourceforge.net/DTD/sodipodi-0.dtd"
   xmlns:inkscape="http://www.inkscape.org/namespaces/inkscape"
   width="64"
   height="64"
   id="svg3360"
   version="1.1"
   inkscape:version="0.91 r13725"
   viewBox="0 0 64 64"
   sodipodi:docname="Enemy_Tail.svg">
  <defs
     id="defs3362">
    <filter
       inkscape:collect="always"
       style="color-interpolation-filters:sRGB"
       id="filter5648"
       x="-0.013924892"
       width="1.0278498"
       y="-0.010542649"
       height="1.0210853">
      <feGaussianBlur
         inkscape:collect="always"
         stdDeviation="0.25064333"
         id="feGaussianBlur5650" />
    </filter>
  </defs>
  <sodipodi:namedview
     id="base"
     pagecolor="#ffffff"
     bordercolor="#666666"
     borderopacity="1.0"
     inkscape:pageopacity="0.0"
     inkscape:pageshadow="2"
     inkscape:zoom="5.5"
     inkscape:cx="89.898704"
     inkscape:cy="17.63732"
     inkscape:current-layer="layer5"
     showgrid="true"
     inkscape:document-units="px"
     inkscape:grid-bbox="true"
     inkscape:window-width="1680"
     inkscape:window-height="995"
     inkscape:window-x="0"
     inkscape:window-y="31"
     inkscape:window-maximized="1"
     gridtolerance="1">
    <inkscape:grid
       type="xygrid"
       id="grid3368"
       visible="false"
       empspacing="2"
       snapvisiblegridlinesonly="true" />
  </sodipodi:namedview>
  <metadata
     id="metadata3365">
    <rdf:RDF>
      <cc:Work
         rdf:about="">
        <dc:format>image/svg+xml</dc:format>
        <dc:type
           rdf:resource="http://purl.org/dc/dcmitype/StillImage" />
        <dc:title></dc:title>
      </cc:Work>
    </rdf:RDF>
  </metadata>
  <g
     inkscape:groupmode="layer"
     id="layer5"
     inkscape:label="Body 2"
     style="display:inline;opacity:1">
    <g
       id="g5703">
      <g
         id="g5706">
        <path
           style="fill:#bd3939;fill-opacity:1;fill-rule:evenodd;stroke:#000000;stroke-width:1px;stroke-linecap:butt;stroke-linejoin:miter;stroke-opacity:1"
           d="m 28,58 c -64,-70 72,-74 8,0 -4,4 -4,4 -8,0 z"
           id="path4623"
           inkscape:connector-curvature="0"
           sodipodi:nodetypes="ccc" />
        <path
           style="opacity:1;fill:#3e1010;fill-opacity:1;stroke:none;stroke-width:1;stroke-opacity:1"
           d="M 27.339844,4.546875 C 26.015033,4.81892 24.717316,5.1906603 23.462891,5.6640625 a 3,6 1.4856484 0 0 -0.81836,3.8730469 3,6 1.4856484 0 0 2.841797,6.0742186 3,6 1.4856484 0 0 3.15625,-5.9199218 3,6 1.4856484 0 0 -1.302734,-5.1445312 z"
           id="path4632"
           inkscape:connector-curvature="0" />
        <path
           style="opacity:1;fill:#3e1010;fill-opacity:1;stroke:none;stroke-width:1;stroke-opacity:1"
           d="M 33.804688,4.0136719 A 6,3 82.349752 0 0 33.769531,7.2421875 6,3 82.349752 0 0 37.541016,12.789062 6,3 82.349752 0 0 39.716797,6.4433594 6,3 82.349752 0 0 39.392578,4.859375 C 37.586993,4.3767014 35.707533,4.0885986 33.804688,4.0136719 Z"
           id="path4634"
           inkscape:connector-curvature="0" />
        <ellipse
           style="opacity:1;fill:#3e1010;fill-opacity:1;stroke:none;stroke-width:1;stroke-opacity:1"
           id="path4638"
           cx="34.428093"
           cy="15.632785"
           rx="4"
           ry="4.7071066"
           transform="matrix(0.99167538,0.12876312,-0.12876312,0.99167538,0,0)" />
        <ellipse
           style="opacity:1;fill:#3e1010;fill-opacity:1;stroke:none;stroke-width:1;stroke-opacity:1"
           id="path4640"
           cx="22.314074"
           cy="34.762459"
           rx="2"
           ry="4"
           transform="matrix(0.98800643,-0.15441271,0.15441271,0.98800643,0,0)"
           inkscape:transform-center-x="-0.3856946"
           inkscape:transform-center-y="1.4142135" />
        <ellipse
           style="opacity:1;fill:#3e1010;fill-opacity:1;stroke:none;stroke-width:1;stroke-opacity:1"
           id="path4642"
           cx="40.23111"
           cy="26.527029"
           rx="2"
           ry="5"
           transform="matrix(0.98656635,0.16336107,-0.16336107,0.98656635,0,0)"
           inkscape:transform-center-y="0.51425948" />
        <ellipse
           style="opacity:1;fill:#3e1010;fill-opacity:1;stroke:none;stroke-width:1;stroke-opacity:1"
           id="path4644"
           cx="20.178907"
           cy="48.072853"
           rx="2"
           ry="4"
           transform="matrix(0.97308314,-0.23045432,0.23045432,0.97308314,0,0)" />
        <path
           style="opacity:0.5;fill:#3e1010;fill-opacity:1;fill-rule:evenodd;stroke:none;stroke-width:1px;stroke-linecap:butt;stroke-linejoin:miter;stroke-opacity:1;filter:url(#filter5648)"
           d="M 32,3.9511719 C 31.091831,3.9797804 30.184385,4.0736811 29.285156,4.2246094 31.207775,3.9759773 33.157448,3.9295906 35.076172,4.0976562 34.058988,3.9718631 33.030235,3.9187181 32,3.9511719 Z m 3.076172,0.1464843 c 14.04479,1.7368922 25.603346,18.5940558 0.314453,51.7539058 -3.390053,3.844479 -3.391197,3.84448 -6.78125,0 C 3.1034747,24.214969 15.079327,6.608944 29.285156,4.2246094 12.31342,6.4193855 -2.3865545,24.764706 28,58 c 4,4 4,4 8,0 C 66.171148,23.11461 51.893461,5.5707228 35.076172,4.0976562 Z"
           id="path4656"
           inkscape:connector-curvature="0" />
        <path
           sodipodi:nodetypes="ccc"
           inkscape:connector-curvature="0"
           id="path4652"
           d="m 28,58 c -64,-70 72,-74 8,0 -4,4 -4,4 -8,0 z"
           style="fill:none;fill-opacity:1;fill-rule:evenodd;stroke:#000000;stroke-width:1px;stroke-linecap:butt;stroke-linejoin:miter;stroke-opacity:1" />
        <g
           id="g5701"
           transform="matrix(0.81512895,0.06054564,-0.04944321,0.99816543,6.8865574,-3.8294796)"
           style="opacity:0.75">
          <path
             inkscape:connector-curvature="0"
             id="path5696"
             d="m 16.777715,17.073823 -1.092802,3.471251 -0.449977,2.89271 0,3.278404 0.51426,3.021274 1.60706,1.799909 1.221367,0.128564 0.899954,-0.578542 -0.06428,-2.185602 0.71527,-3.535534 1.92031,-3.471252 1.349931,-3.021274 0.128565,-2.249885 -1.285648,-2.764145 -1.285649,-1.221366 -1.671343,0 L 17.806234,14 Z"
             style="opacity:1;fill:#f4d7d7;fill-opacity:1;fill-rule:evenodd;stroke:none;stroke-width:1px;stroke-linecap:butt;stroke-linejoin:miter;stroke-opacity:1" />
          <g
             id="g5698">
            <path
               style="opacity:1;fill:#f4d7d7;fill-opacity:1;stroke:none;stroke-width:1;stroke-opacity:1"
               id="path5688"
               d="m 18.346226,14.049978 c -0.01369,0.01881 -0.02851,0.03799 -0.04249,0.05695 -0.04571,0.0635 -0.08664,0.130232 -0.127471,0.196912 -0.06412,0.10132 -0.124599,0.204824 -0.185379,0.308153 -0.07358,0.127045 -0.14258,0.256586 -0.210968,0.386468 -0.07763,0.148767 -0.146908,0.301649 -0.216972,0.45406 -0.08025,0.177188 -0.156938,0.355948 -0.233427,0.534781 -0.08437,0.196938 -0.162896,0.396267 -0.240866,0.595799 -0.08494,0.219091 -0.164358,0.440246 -0.239674,0.662812 -0.07949,0.23715 -0.152981,0.476239 -0.224681,0.71584 -0.07238,0.242646 -0.138874,0.486992 -0.203032,0.731923 -0.06572,0.251276 -0.125386,0.504066 -0.18367,0.757152 -0.05785,0.254195 -0.113804,0.508841 -0.164718,0.764521 -0.04869,0.250373 -0.09524,0.501181 -0.137035,0.752801 -0.03977,0.246765 -0.07784,0.493826 -0.111341,0.741524 -0.03225,0.244837 -0.06121,0.490074 -0.08636,0.735738 -0.02534,0.241433 -0.0454,0.483321 -0.06335,0.725398 -0.01882,0.236075 -0.03082,0.472592 -0.04263,0.709097 -0.0089,0.231217 -0.01657,0.46251 -0.02077,0.693865 -0.0044,0.223411 -0.0039,0.446831 -0.0019,0.67026 9.1e-4,0.218441 0.0054,0.436802 0.01148,0.655151 0.0061,0.207712 0.01547,0.415357 0.0276,0.622803 0.01184,0.201385 0.02994,0.40233 0.05,0.60304 0.02044,0.193627 0.04676,0.386516 0.0739,0.579293 0.02715,0.184493 0.05737,0.36849 0.09197,0.551731 0.03249,0.172559 0.07184,0.343745 0.115097,0.513896 0.0406,0.161102 0.09003,0.319759 0.139461,0.478311 0.04643,0.14603 0.101226,0.289224 0.158385,0.43134 0.05412,0.135271 0.114763,0.267794 0.17913,0.39846 0.05728,0.114963 0.121197,0.226426 0.189944,0.334872 0.0594,0.09358 0.127871,0.180801 0.198184,0.266304 0.06285,0.07559 0.130485,0.146792 0.202391,0.213762 0.06457,0.05834 0.13515,0.109498 0.206962,0.158451 0.06665,0.04737 0.139034,0.08535 0.212191,0.121461 0.06912,0.0321 0.140607,0.05923 0.213244,0.08224 0.06909,0.02172 0.139707,0.03815 0.210802,0.05172 0.06355,0.01044 0.127868,0.01575 0.192199,0.01798 0.06216,0.0031 0.124139,-0.0029 0.185954,-0.0086 0.05434,-0.0053 0.107458,-0.0172 0.160169,-0.03092 0.05258,-0.01467 0.103258,-0.03456 0.153335,-0.05606 0.04406,-0.02006 0.08647,-0.04321 0.126663,-0.07016 0.04069,-0.02688 0.07856,-0.05779 0.114525,-0.09065 0.03341,-0.02832 0.06129,-0.0617 0.08676,-0.0971 0.02623,-0.03748 0.04486,-0.0792 0.06365,-0.120678 0.02444,-0.05582 0.0477,-0.112061 0.06652,-0.170035 0.02059,-0.05957 0.03357,-0.121262 0.04657,-0.182815 0.01587,-0.06921 0.02669,-0.139225 0.03585,-0.209573 0.0099,-0.07769 0.01346,-0.156041 0.01791,-0.234186 0.0052,-0.09356 0.0097,-0.18716 0.01404,-0.280767 0.0059,-0.09486 0.0057,-0.189893 0.0059,-0.28489 2.1e-5,-0.107525 -1.38e-4,-0.21505 -2.63e-4,-0.322575 -1.31e-4,-0.111302 -2.54e-4,-0.222605 -3.74e-4,-0.333908 -1.2e-4,-0.11302 -2.31e-4,-0.22604 -3.39e-4,-0.33906 -1.09e-4,-0.114541 -2.09e-4,-0.229081 -3.06e-4,-0.343622 -0.0014,-0.120061 7.08e-4,-0.240051 0.0044,-0.360047 0.0062,-0.12304 0.01399,-0.246038 0.02441,-0.368797 0.01031,-0.122139 0.02455,-0.243842 0.03977,-0.365447 0.01399,-0.121236 0.03293,-0.241791 0.05113,-0.36244 0.01825,-0.124955 0.04071,-0.249242 0.06561,-0.373028 0.02329,-0.123684 0.05223,-0.246115 0.08325,-0.36805 0.03126,-0.121175 0.06517,-0.241697 0.100802,-0.361657 0.03432,-0.117736 0.07181,-0.234481 0.109238,-0.351253 0.03927,-0.119185 0.08231,-0.237048 0.125429,-0.354876 0.04546,-0.120116 0.09405,-0.239039 0.144908,-0.35696 0.04963,-0.116856 0.102312,-0.232343 0.15645,-0.347164 0.05581,-0.116956 0.114641,-0.232415 0.173953,-0.34762 0.05979,-0.117361 0.125391,-0.231555 0.192023,-0.345117 0.06434,-0.109636 0.130813,-0.218003 0.197958,-0.325939 0.06953,-0.108772 0.140843,-0.216392 0.212227,-0.323955 0.072,-0.109885 0.147822,-0.217163 0.222935,-0.324922 0.07207,-0.103437 0.145199,-0.206121 0.216495,-0.310098 0.07034,-0.101156 0.139409,-0.203189 0.206636,-0.30644 0.06964,-0.103542 0.136565,-0.208866 0.204635,-0.313435 0.06486,-0.09918 0.127597,-0.199704 0.187259,-0.302092 0.06345,-0.107093 0.124294,-0.215664 0.183762,-0.325006 0.05879,-0.110238 0.11875,-0.219859 0.176793,-0.330499 0.05617,-0.106763 0.109052,-0.215208 0.160278,-0.324415 0.05096,-0.108553 0.0987,-0.21857 0.144944,-0.3292 0.04651,-0.112534 0.08846,-0.226851 0.129456,-0.34148 0.04079,-0.114953 0.07951,-0.230592 0.11412,-0.347556 0.03445,-0.116943 0.06547,-0.23484 0.09571,-0.352925 0.02755,-0.11669 0.05084,-0.234325 0.07403,-0.351941 0.01975,-0.114837 0.03865,-0.229888 0.05334,-0.345493 0.01423,-0.113053 0.02548,-0.226409 0.03108,-0.340223 0.0063,-0.117682 0.0019,-0.235501 -0.0022,-0.353164 -0.0057,-0.122979 -0.0169,-0.245643 -0.03071,-0.367953 -0.0141,-0.127984 -0.03504,-0.255078 -0.05852,-0.381636 -0.0248,-0.132963 -0.05495,-0.26486 -0.08845,-0.395881 -0.03414,-0.13339 -0.07326,-0.265452 -0.114138,-0.396915 -0.04086,-0.129625 -0.08729,-0.257354 -0.13507,-0.384556 -0.04815,-0.127539 -0.101799,-0.252856 -0.157274,-0.377346 -0.0546,-0.121692 -0.112166,-0.242033 -0.171763,-0.36135 -0.05841,-0.114227 -0.119736,-0.226858 -0.182286,-0.338855 -0.05669,-0.104063 -0.119518,-0.204537 -0.183791,-0.304031 -0.06171,-0.09748 -0.127769,-0.192004 -0.195993,-0.285003 -0.06399,-0.08635 -0.133334,-0.168429 -0.204097,-0.249243 -0.06839,-0.07885 -0.140677,-0.15419 -0.21518,-0.227254 -0.07271,-0.07207 -0.148817,-0.140482 -0.226204,-0.207448 -0.07031,-0.05748 -0.143449,-0.111433 -0.219009,-0.161792 -0.07028,-0.04729 -0.143905,-0.08946 -0.220032,-0.126544 -0.06725,-0.03172 -0.137947,-0.05459 -0.209187,-0.07532 -0.06889,-0.01796 -0.139475,-0.02856 -0.210037,-0.03742 -0.07319,-0.01054 -0.14711,-0.01174 -0.220896,-0.0128 -0.06789,-6.3e-4 -0.135337,0.0059 -0.202542,0.01467 -0.06571,0.0079 -0.130745,0.02061 -0.194549,0.03811 -0.06313,0.01619 -0.1242,0.03872 -0.18488,0.06223 -0.06049,0.02572 -0.119733,0.05446 -0.177912,0.08503 -0.05554,0.0299 -0.110229,0.06178 -0.161663,0.09836 -0.05934,0.03971 -0.115993,0.08301 -0.171207,0.128221 -0.05101,0.0436 -0.100345,0.08906 -0.147276,0.137017 -0.04855,0.04976 -0.0938,0.102595 -0.138113,0.156122 -0.04386,0.05376 -0.08366,0.11056 -0.122556,0.167954 -0.04719,0.06933 -0.09454,0.138557 -0.14187,0.207797 -0.03369,0.04831 -0.06558,0.09783 -0.0955,0.148562 -0.278537,0.468975 -0.941768,0.07506 -0.66323,-0.393911 l 0,0 c 0.03856,-0.06463 0.07878,-0.128238 0.121896,-0.189947 0.04682,-0.0685 0.09366,-0.136981 0.140354,-0.205568 0.05281,-0.07777 0.107269,-0.154453 0.166988,-0.227128 0.05855,-0.07058 0.11857,-0.14005 0.18282,-0.205551 0.06662,-0.06723 0.135753,-0.131901 0.20837,-0.192659 0.07058,-0.05759 0.142905,-0.112938 0.218465,-0.163904 0.07915,-0.05457 0.161136,-0.105012 0.246362,-0.149607 0.08373,-0.04333 0.168476,-0.085 0.25595,-0.120293 0.08697,-0.03356 0.174819,-0.06488 0.265145,-0.08831 0.09665,-0.02521 0.194458,-0.04592 0.293757,-0.05758 0.10367,-0.01324 0.207856,-0.0222 0.31249,-0.02092 0.10261,0.0015 0.205321,0.0047 0.307112,0.0189 0.110864,0.01427 0.221582,0.03214 0.32937,0.06234 0.114341,0.03365 0.227352,0.07221 0.334772,0.124388 0.105828,0.05293 0.209332,0.110554 0.307286,0.177128 0.10149,0.06837 0.200401,0.140633 0.29425,0.219253 0.08966,0.07767 0.177773,0.157084 0.262092,0.240565 0.08807,0.08677 0.173883,0.175864 0.25488,0.269328 0.08531,0.09755 0.168655,0.196846 0.245694,0.301133 0.0772,0.105357 0.151976,0.212425 0.221972,0.32274 0.07312,0.113345 0.144494,0.227864 0.209191,0.346284 0.06833,0.122378 0.13525,0.245505 0.198945,0.370377 0.06462,0.129465 0.127073,0.260024 0.186264,0.392066 0.06169,0.138562 0.121253,0.278091 0.174781,0.420045 0.05299,0.141154 0.104324,0.28295 0.149557,0.426815 0.04478,0.144193 0.0876,0.289056 0.125001,0.435363 0.03753,0.147707 0.0717,0.29629 0.09949,0.446166 0.02663,0.144611 0.05055,0.289791 0.06657,0.436009 0.01577,0.141933 0.02893,0.284229 0.03503,0.426943 0.0049,0.139776 0.0092,0.279732 0.0016,0.419513 -0.0071,0.133482 -0.01934,0.266541 -0.03638,0.399134 -0.01722,0.132571 -0.03817,0.26466 -0.06161,0.396274 -0.02598,0.13176 -0.05213,0.263542 -0.08358,0.394131 -0.03265,0.127436 -0.06621,0.254651 -0.103426,0.380845 -0.0388,0.130538 -0.08168,0.259761 -0.127359,0.388055 -0.04558,0.127367 -0.09234,0.254339 -0.144135,0.379338 -0.05054,0.120735 -0.102643,0.240833 -0.158303,0.35931 -0.05615,0.119526 -0.114016,0.238265 -0.175541,0.355134 -0.05986,0.113986 -0.121539,0.227006 -0.18218,0.340578 -0.06319,0.116136 -0.127814,0.231468 -0.195171,0.345248 -0.06615,0.113184 -0.135263,0.22458 -0.207102,0.334252 -0.06816,0.104574 -0.134994,0.210018 -0.204721,0.313567 -0.07062,0.108287 -0.142912,0.215461 -0.216754,0.321575 -0.07242,0.105583 -0.146598,0.209921 -0.219838,0.314933 -0.07176,0.102953 -0.14428,0.205393 -0.213052,0.310393 -0.06721,0.101251 -0.134311,0.20258 -0.199952,0.304857 -0.06364,0.102292 -0.126664,0.204983 -0.187652,0.308887 -0.05946,0.101301 -0.118203,0.203056 -0.171482,0.307791 -0.05522,0.107251 -0.110056,0.214704 -0.162087,0.323551 -0.05058,0.107224 -0.09979,0.215076 -0.146087,0.32423 -0.04523,0.104333 -0.08797,0.209757 -0.128566,0.315978 -0.03953,0.108013 -0.07908,0.21602 -0.115254,0.32522 -0.0358,0.111692 -0.07173,0.223336 -0.104513,0.335967 -0.03286,0.109988 -0.0637,0.220632 -0.09254,0.33174 -0.02784,0.109339 -0.05389,0.219094 -0.07459,0.330049 -0.02247,0.111439 -0.04267,0.223346 -0.05906,0.335855 -0.01724,0.114242 -0.03531,0.228373 -0.04848,0.343181 -0.01398,0.11166 -0.0272,0.22339 -0.03662,0.335548 -0.0095,0.108801 -0.01586,0.217869 -0.02196,0.326904 -0.0035,0.11177 -0.0055,0.223521 -0.0041,0.335354 9.7e-5,0.114514 1.97e-4,0.229028 3.06e-4,0.343541 1.08e-4,0.11299 2.18e-4,0.22598 3.39e-4,0.338969 1.2e-4,0.11128 2.43e-4,0.222559 3.73e-4,0.333839 1.26e-4,0.108214 2.87e-4,0.216427 2.63e-4,0.324641 -1.64e-4,0.106463 -3.04e-4,0.212966 -0.0067,0.319282 -0.0045,0.09641 -0.0092,0.192803 -0.01448,0.289167 -0.0055,0.09693 -0.01047,0.194054 -0.02319,0.29037 -0.01189,0.09039 -0.02609,0.180389 -0.04609,0.269388 -0.01895,0.08915 -0.03911,0.178177 -0.06864,0.264543 -0.02807,0.0843 -0.06067,0.166862 -0.09701,0.247962 -0.04134,0.09049 -0.08644,0.179434 -0.145589,0.259853 -0.0573,0.07656 -0.11927,0.149499 -0.191663,0.212406 -0.06601,0.05874 -0.134516,0.114821 -0.208778,0.162947 -0.07823,0.05034 -0.159213,0.09617 -0.244709,0.13319 -0.08596,0.03656 -0.173432,0.06949 -0.263797,0.09363 -0.09298,0.02379 -0.187037,0.04323 -0.28275,0.05215 -0.09554,0.0087 -0.191404,0.01581 -0.287411,0.01109 -0.1028,-0.0046 -0.205593,-0.01273 -0.306929,-0.03133 -0.102,-0.01987 -0.203329,-0.04364 -0.302378,-0.07531 -0.108277,-0.03555 -0.215409,-0.07521 -0.318077,-0.124956 -0.105103,-0.0523 -0.20862,-0.108082 -0.30482,-0.175736 -0.104215,-0.0714 -0.206076,-0.146718 -0.29912,-0.23242 -0.09603,-0.09038 -0.187299,-0.185533 -0.271265,-0.287335 -0.09029,-0.110263 -0.177824,-0.222993 -0.254001,-0.343636 -0.08301,-0.131806 -0.160879,-0.266835 -0.230018,-0.406497 -0.07267,-0.148085 -0.141507,-0.298076 -0.202693,-0.451313 -0.06463,-0.16118 -0.126643,-0.323546 -0.178985,-0.4892 -0.05354,-0.171755 -0.106798,-0.343699 -0.150736,-0.518223 -0.04701,-0.185683 -0.09009,-0.372409 -0.125433,-0.560698 -0.0367,-0.195002 -0.06905,-0.390756 -0.09778,-0.587094 -0.02858,-0.203033 -0.05618,-0.406204 -0.07761,-0.610143 -0.02109,-0.211293 -0.04007,-0.422838 -0.05251,-0.634841 -0.0125,-0.215239 -0.02239,-0.430671 -0.02861,-0.646185 -0.0062,-0.22324 -0.01079,-0.446495 -0.01175,-0.669829 -0.002,-0.230398 -0.0025,-0.46079 0.002,-0.691169 0.0044,-0.239478 0.01217,-0.478898 0.0216,-0.718229 0.01212,-0.242699 0.0245,-0.485406 0.04378,-0.727667 0.01849,-0.249272 0.03919,-0.498349 0.06525,-0.74696 0.02603,-0.253993 0.05593,-0.507553 0.08932,-0.760688 0.03464,-0.255367 0.0737,-0.510116 0.11481,-0.764519 0.04324,-0.259709 0.0911,-0.51863 0.141468,-0.777049 0.0525,-0.26313 0.109878,-0.525257 0.169515,-0.786858 0.06002,-0.260571 0.121492,-0.520828 0.189178,-0.779533 0.06644,-0.253517 0.135277,-0.506435 0.210232,-0.757585 0.07435,-0.248379 0.15057,-0.496222 0.233036,-0.742047 0.07919,-0.233757 0.162543,-0.466082 0.251838,-0.696187 0.08093,-0.207111 0.162533,-0.413974 0.250109,-0.618393 0.07919,-0.185151 0.158627,-0.370212 0.241788,-0.553626 0.07584,-0.164969 0.151071,-0.330335 0.235297,-0.491255 0.07403,-0.140589 0.148876,-0.28073 0.228632,-0.418183 0.06311,-0.107277 0.125949,-0.214713 0.192456,-0.31994 0.05263,-0.08592 0.10589,-0.171612 0.165339,-0.25305 0.05468,-0.07365 0.11229,-0.145817 0.184449,-0.203365 0.428118,-0.337988 0.906105,0.267462 0.477987,0.60545 z"
               inkscape:connector-curvature="0" />
          </g>
        </g>
      </g>
    </g>
  </g>
</svg>
